<svg width="126" height="36" viewBox="0 0 126 36" fill="none" xmlns="http://www.w3.org/2000/svg">
<path d="M4.94118 19.0423L59.7059 29.7482L121.882 19.0423L126 35.1011H0L4.94118 19.0423Z" fill="#FFC017"/>
<g filter="url(#filter0_d_11_20)">
<path d="M41.544 17.4989L39.408 16.4669V16.3469C39.968 15.8029 40.344 15.3629 40.536 15.0269C40.744 14.6909 40.848 14.3229 40.848 13.9229C40.848 13.5069 40.752 13.1309 40.56 12.7949C40.368 12.4589 40.048 12.2909 39.6 12.2909C39.312 12.2909 39.072 12.3549 38.88 12.4829C38.704 12.5949 38.528 12.7149 38.352 12.8429C38.176 12.9709 37.936 13.0349 37.632 13.0349C37.264 13.0349 36.96 12.9069 36.72 12.6509C36.48 12.3949 36.36 12.0909 36.36 11.7389C36.36 11.3549 36.504 10.9389 36.792 10.4909C37.08 10.0269 37.48 9.59493 37.992 9.19492C38.52 8.77893 39.144 8.44293 39.864 8.18692C40.6 7.91492 41.408 7.77892 42.288 7.77892C43.664 7.77892 44.864 8.16292 45.888 8.93093C46.928 9.68293 47.88 10.9149 48.744 12.6269L48.84 12.6029C48.776 11.9949 48.736 11.3629 48.72 10.7069C48.704 10.0349 48.696 9.23493 48.696 8.30692V8.01893H51.096L52.536 9.45893V9.65092H50.352L50.544 23.9309H50.28L48.648 22.6589C48.648 22.3229 48.648 21.8829 48.648 21.3389C48.648 20.7789 48.648 20.1869 48.648 19.5629C48.664 18.9229 48.672 18.3229 48.672 17.7629C48.672 17.1869 48.672 16.7149 48.672 16.3469C48.672 15.9629 48.672 15.7549 48.672 15.7229C48.672 15.2109 48.544 14.6109 48.288 13.9229C48.032 13.2349 47.672 12.5789 47.208 11.9549C46.2 12.7869 45.248 13.6589 44.352 14.5709C43.456 15.4829 42.52 16.4589 41.544 17.4989ZM41.904 13.9709C42.4 13.4749 42.952 12.9389 43.56 12.3629C44.184 11.7869 44.904 11.1469 45.72 10.4429C45.32 10.1549 44.888 9.92293 44.424 9.74692C43.96 9.57093 43.472 9.48293 42.96 9.48293C42.336 9.48293 41.704 9.61893 41.064 9.89092C40.44 10.1469 39.912 10.5389 39.48 11.0669L39.528 11.1389C40.184 11.1709 40.736 11.4029 41.184 11.8349C41.632 12.2669 41.856 12.8589 41.856 13.6109C41.856 13.6269 41.856 13.6589 41.856 13.7069C41.856 13.7549 41.848 13.8269 41.832 13.9229L41.904 13.9709ZM56.4651 23.9309H56.2011L54.5691 22.6589L54.6171 9.65092H52.5291L51.0891 8.21092V8.01893H54.5451C54.1771 7.57093 53.8331 7.17093 53.5131 6.81893C53.2091 6.45093 53.0571 5.98693 53.0571 5.42692C53.0571 4.78693 53.2971 4.17093 53.7771 3.57892C54.2731 2.97092 54.9531 2.47492 55.8171 2.09092C56.6811 1.69093 57.6891 1.49093 58.8411 1.49093C59.8971 1.49093 60.9771 1.68293 62.0811 2.06693C63.2011 2.45092 64.2811 3.01092 65.3211 3.74692C66.3771 4.46693 67.3211 5.33092 68.1531 6.33892L67.9371 7.17893H67.7691C66.4731 5.75493 65.1531 4.74693 63.8091 4.15493C62.4811 3.54692 61.1851 3.24292 59.9211 3.24292C58.8971 3.24292 58.0171 3.39492 57.2811 3.69893C56.5611 3.98692 56.0091 4.37092 55.6251 4.85092C55.2411 5.31492 55.0491 5.82692 55.0491 6.38693C55.0491 6.64292 55.0971 6.89892 55.1931 7.15493C55.2891 7.39493 55.4731 7.68293 55.7451 8.01893H57.0171L58.4571 9.45893V9.65092H56.2731L56.4651 23.9309ZM64.0508 22.8029C63.1388 22.8029 62.3468 22.5949 61.6748 22.1789C61.0188 21.7469 60.5068 21.1949 60.1388 20.5229C59.7868 19.8349 59.6108 19.1149 59.6108 18.3629C59.6108 18.1389 59.6268 17.8749 59.6588 17.5709C59.7068 17.2669 59.7708 16.9869 59.8508 16.7309C60.7468 16.5069 61.5468 16.0829 62.2508 15.4589C62.9548 14.8349 63.5148 14.0829 63.9308 13.2029C64.3468 12.3069 64.5547 11.3549 64.5547 10.3469C64.5547 10.0749 64.5388 9.84293 64.5068 9.65092H58.4588L57.0187 8.21092V8.01893H63.7388C63.4188 7.52293 63.0588 6.97093 62.6588 6.36293C62.2588 5.73892 61.9148 5.09892 61.6268 4.44292C61.3388 3.77092 61.1948 3.13092 61.1948 2.52292C61.1948 1.86692 61.3708 1.35492 61.7228 0.986925C62.0908 0.618925 62.5468 0.434925 63.0908 0.434925C63.4588 0.434925 63.8108 0.530925 64.1468 0.722925C64.4828 0.914925 64.7388 1.29092 64.9148 1.85092L64.7708 1.99492C64.5628 1.93092 64.3468 1.89892 64.1228 1.89892C63.7068 1.89892 63.3708 2.01892 63.1148 2.25893C62.8588 2.48293 62.7308 2.82693 62.7308 3.29093C62.7308 3.94693 62.9548 4.67493 63.4028 5.47493C63.8508 6.27492 64.3948 7.12292 65.0348 8.01893H69.4028L70.8428 9.45893V9.65092H66.2348C66.6988 10.3069 67.1548 11.0269 67.6028 11.8109C68.0668 12.5789 68.4508 13.4029 68.7548 14.2829C69.0588 15.1469 69.2108 16.0509 69.2108 16.9949C69.2108 18.0989 68.9868 19.0909 68.5388 19.9709C68.0908 20.8349 67.4748 21.5229 66.6908 22.0349C65.9228 22.5469 65.0428 22.8029 64.0508 22.8029ZM65.7308 10.5869L65.6588 10.6109C65.8188 11.2029 65.8988 11.8029 65.8988 12.4109C65.8988 13.8509 65.4668 15.1309 64.6028 16.2509C63.7548 17.3709 62.6268 18.1869 61.2188 18.6989C61.2028 18.7789 61.1868 18.8589 61.1708 18.9389C61.1708 19.0029 61.1708 19.0429 61.1708 19.0589C61.1708 19.7629 61.3708 20.3149 61.7708 20.7149C62.1868 21.1149 62.7308 21.3149 63.4028 21.3149C63.8028 21.3149 64.2348 21.2349 64.6988 21.0749C65.1788 20.9149 65.6348 20.6429 66.0668 20.2589C66.4988 19.8749 66.8508 19.3629 67.1228 18.7229C67.3948 18.0829 67.5308 17.2829 67.5308 16.3229C67.5308 15.2349 67.3548 14.1949 67.0028 13.2029C66.6508 12.1949 66.2268 11.3229 65.7308 10.5869ZM80.2658 21.8909C79.0658 21.8909 77.8978 21.5229 76.7617 20.7869C75.6258 20.0509 74.5778 18.8589 73.6178 17.2109C72.6578 15.5629 71.8258 13.3869 71.1218 10.6829H71.3618L72.0818 10.8989C72.7858 13.1229 73.5618 14.8749 74.4098 16.1549C75.2578 17.4189 76.1458 18.3149 77.0738 18.8429C78.0018 19.3549 78.9298 19.6109 79.8578 19.6109C80.7378 19.6109 81.4978 19.4349 82.1378 19.0829C82.7778 18.7309 83.2738 18.2749 83.6258 17.7149C83.9938 17.1549 84.1778 16.5549 84.1778 15.9149C84.1778 15.3709 84.0578 14.8589 83.8177 14.3789C83.5778 13.8829 83.2418 13.4749 82.8098 13.1549C82.3778 12.8349 81.8818 12.6749 81.3218 12.6749C81.2258 12.6749 81.1058 12.6829 80.9618 12.6989C80.8338 12.7149 80.7058 12.7469 80.5778 12.7949C80.8338 13.0189 81.0178 13.2829 81.1298 13.5869C81.2418 13.8749 81.2978 14.1629 81.2978 14.4509C81.2978 15.0269 81.0898 15.5389 80.6738 15.9869C80.2578 16.4189 79.7218 16.6349 79.0658 16.6349C78.6818 16.6349 78.2978 16.5469 77.9138 16.3709C77.5458 16.1789 77.2418 15.8989 77.0018 15.5309C76.7618 15.1629 76.6418 14.6989 76.6418 14.1389C76.6418 13.5149 76.8018 12.9629 77.1218 12.4829C77.4418 11.9869 77.8818 11.6029 78.4418 11.3309C79.0018 11.0429 79.6338 10.8989 80.3378 10.8989C81.2978 10.8989 82.1698 11.1469 82.9538 11.6429C83.7378 12.1389 84.3538 12.8109 84.8018 13.6589C85.2658 14.4909 85.4978 15.4429 85.4978 16.5149C85.4978 17.5389 85.2738 18.4589 84.8258 19.2749C84.3778 20.0909 83.7618 20.7309 82.9778 21.1949C82.1938 21.6589 81.2898 21.8909 80.2658 21.8909ZM86.9858 9.65092H70.8338L69.3937 8.21092V8.01893H85.5458L86.9858 9.45893V9.65092Z" fill="black"/>
</g>
<defs>
<filter id="filter0_d_11_20" x="33.76" y="0.434937" width="55.8258" height="30.096" filterUnits="userSpaceOnUse" color-interpolation-filters="sRGB">
<feFlood flood-opacity="0" result="BackgroundImageFix"/>
<feColorMatrix in="SourceAlpha" type="matrix" values="0 0 0 0 0 0 0 0 0 0 0 0 0 0 0 0 0 0 127 0" result="hardAlpha"/>
<feOffset dy="4"/>
<feGaussianBlur stdDeviation="1.3"/>
<feComposite in2="hardAlpha" operator="out"/>
<feColorMatrix type="matrix" values="0 0 0 0 0 0 0 0 0 0 0 0 0 0 0 0 0 0 0.25 0"/>
<feBlend mode="normal" in2="BackgroundImageFix" result="effect1_dropShadow_11_20"/>
<feBlend mode="normal" in="SourceGraphic" in2="effect1_dropShadow_11_20" result="shape"/>
</filter>
</defs>
</svg>
